# xmcd CD database file
#
# Track frame offsets:
#	182
#	22665
#	43672
#	63807
#	80345
#	102420
#	123372
#	144172
#	162610
#	178972
#
# Disc length: 2653 seconds
#
# Revision: 0
# Processed by: cddbd v1.4b42PL0 Copyright (c) Steve Scherf et al.
# Submitted via: CDex 1.40Beta5
#
DISCID=7c0a5b0a
DTITLE=Lisa Daggs - Angel in your eyes
DYEAR=1993
DGENRE=Country
TTITLE0=Walls
TTITLE1=Gentle Whisper
TTITLE2=Leave your bags at the door
TTITLE3=I wanna Thank you
TTITLE4=My House
TTITLE5=Man Of My Heart
TTITLE6=Angel in your eyes
TTITLE7=Love won't let me wait
TTITLE8=Reign it in
TTITLE9=Song of love
EXTD=YEAR: 1993 ID3G:   2
EXTT0=
EXTT1=
EXTT2=
EXTT3=
EXTT4=
EXTT5=
EXTT6=
EXTT7=
EXTT8=
EXTT9=
PLAYORDER=
